<mxfile host="app.diagrams.net" modified="2023-07-09T04:52:55.826Z" agent="Mozilla/5.0 (Macintosh; Intel Mac OS X 10_15_7) AppleWebKit/537.36 (KHTML, like Gecko) Chrome/114.0.0.0 Safari/537.36" etag="oQWUd2kWRnxB64gnsATE" version="21.5.2" type="github" pages="4">
  <diagram name="架构" id="m7k_fpHOyJ3HgnAJIdbW">
    <mxGraphModel dx="1382" dy="1514" grid="1" gridSize="10" guides="1" tooltips="1" connect="1" arrows="1" fold="1" page="1" pageScale="1" pageWidth="850" pageHeight="1100" math="0" shadow="0">
      <root>
        <mxCell id="0" />
        <mxCell id="1" parent="0" />
        <mxCell id="1hOJ_aQ_bv51P6VJeh0--5" style="edgeStyle=orthogonalEdgeStyle;rounded=0;orthogonalLoop=1;jettySize=auto;html=1;exitX=0.5;exitY=1;exitDx=0;exitDy=0;" parent="1" source="1hOJ_aQ_bv51P6VJeh0--1" target="1hOJ_aQ_bv51P6VJeh0--2" edge="1">
          <mxGeometry relative="1" as="geometry" />
        </mxCell>
        <mxCell id="1hOJ_aQ_bv51P6VJeh0--1" value="调度引擎&lt;br&gt;Airflow/DataWorks" style="rounded=1;whiteSpace=wrap;html=1;" parent="1" vertex="1">
          <mxGeometry x="360" y="400" width="120" height="60" as="geometry" />
        </mxCell>
        <mxCell id="1hOJ_aQ_bv51P6VJeh0--4" style="edgeStyle=orthogonalEdgeStyle;rounded=0;orthogonalLoop=1;jettySize=auto;html=1;exitX=1;exitY=0.5;exitDx=0;exitDy=0;entryX=0;entryY=0.5;entryDx=0;entryDy=0;" parent="1" source="1hOJ_aQ_bv51P6VJeh0--2" target="1hOJ_aQ_bv51P6VJeh0--3" edge="1">
          <mxGeometry relative="1" as="geometry" />
        </mxCell>
        <mxCell id="1hOJ_aQ_bv51P6VJeh0--8" style="edgeStyle=orthogonalEdgeStyle;rounded=0;orthogonalLoop=1;jettySize=auto;html=1;exitX=0.75;exitY=1;exitDx=0;exitDy=0;entryX=0;entryY=0.5;entryDx=0;entryDy=0;" parent="1" source="1hOJ_aQ_bv51P6VJeh0--2" target="1hOJ_aQ_bv51P6VJeh0--7" edge="1">
          <mxGeometry relative="1" as="geometry" />
        </mxCell>
        <mxCell id="1hOJ_aQ_bv51P6VJeh0--9" style="edgeStyle=orthogonalEdgeStyle;rounded=0;orthogonalLoop=1;jettySize=auto;html=1;exitX=0.25;exitY=1;exitDx=0;exitDy=0;entryX=1;entryY=0.5;entryDx=0;entryDy=0;" parent="1" source="1hOJ_aQ_bv51P6VJeh0--2" target="1hOJ_aQ_bv51P6VJeh0--6" edge="1">
          <mxGeometry relative="1" as="geometry" />
        </mxCell>
        <mxCell id="_VQXQe3BT0p8ZT42UcLd-5" style="edgeStyle=orthogonalEdgeStyle;rounded=0;orthogonalLoop=1;jettySize=auto;html=1;exitX=1;exitY=0.5;exitDx=0;exitDy=0;entryX=0;entryY=0.5;entryDx=0;entryDy=0;" parent="1" source="1hOJ_aQ_bv51P6VJeh0--2" target="_VQXQe3BT0p8ZT42UcLd-4" edge="1">
          <mxGeometry relative="1" as="geometry" />
        </mxCell>
        <mxCell id="1hOJ_aQ_bv51P6VJeh0--2" value="任务定义服务" style="rounded=1;whiteSpace=wrap;html=1;" parent="1" vertex="1">
          <mxGeometry x="360" y="520" width="120" height="60" as="geometry" />
        </mxCell>
        <mxCell id="1hOJ_aQ_bv51P6VJeh0--3" value="SDK层" style="rounded=1;whiteSpace=wrap;html=1;" parent="1" vertex="1">
          <mxGeometry x="650" y="520" width="120" height="60" as="geometry" />
        </mxCell>
        <mxCell id="1hOJ_aQ_bv51P6VJeh0--6" value="持久化层&lt;br&gt;MaxCompute/Neo4j/local disk" style="rounded=1;whiteSpace=wrap;html=1;" parent="1" vertex="1">
          <mxGeometry x="240" y="640" width="120" height="60" as="geometry" />
        </mxCell>
        <mxCell id="1hOJ_aQ_bv51P6VJeh0--7" value="计算层&lt;br&gt;Spark/MaxCompute" style="rounded=1;whiteSpace=wrap;html=1;" parent="1" vertex="1">
          <mxGeometry x="480" y="640" width="120" height="60" as="geometry" />
        </mxCell>
        <mxCell id="_VQXQe3BT0p8ZT42UcLd-2" value="生成DAG" style="text;html=1;strokeColor=none;fillColor=none;align=center;verticalAlign=middle;whiteSpace=wrap;rounded=0;" parent="1" vertex="1">
          <mxGeometry x="250" y="460" width="60" height="30" as="geometry" />
        </mxCell>
        <mxCell id="_VQXQe3BT0p8ZT42UcLd-6" style="edgeStyle=orthogonalEdgeStyle;rounded=0;orthogonalLoop=1;jettySize=auto;html=1;exitX=1;exitY=0.5;exitDx=0;exitDy=0;entryX=0;entryY=0.5;entryDx=0;entryDy=0;" parent="1" source="_VQXQe3BT0p8ZT42UcLd-3" target="1hOJ_aQ_bv51P6VJeh0--2" edge="1">
          <mxGeometry relative="1" as="geometry" />
        </mxCell>
        <mxCell id="_VQXQe3BT0p8ZT42UcLd-7" style="edgeStyle=orthogonalEdgeStyle;rounded=0;orthogonalLoop=1;jettySize=auto;html=1;exitX=0.5;exitY=0;exitDx=0;exitDy=0;entryX=0;entryY=0.5;entryDx=0;entryDy=0;startArrow=classic;startFill=1;" parent="1" source="_VQXQe3BT0p8ZT42UcLd-3" target="1hOJ_aQ_bv51P6VJeh0--1" edge="1">
          <mxGeometry relative="1" as="geometry" />
        </mxCell>
        <mxCell id="_VQXQe3BT0p8ZT42UcLd-3" value="任务定义配置" style="rounded=1;whiteSpace=wrap;html=1;" parent="1" vertex="1">
          <mxGeometry x="190" y="520" width="120" height="60" as="geometry" />
        </mxCell>
        <mxCell id="_VQXQe3BT0p8ZT42UcLd-4" value="&lt;meta charset=&quot;utf-8&quot;&gt;&lt;span style=&quot;color: rgb(0, 0, 0); font-family: Helvetica; font-size: 12px; font-style: normal; font-variant-ligatures: normal; font-variant-caps: normal; font-weight: 400; letter-spacing: normal; orphans: 2; text-align: center; text-indent: 0px; text-transform: none; widows: 2; word-spacing: 0px; -webkit-text-stroke-width: 0px; background-color: rgb(251, 251, 251); text-decoration-thickness: initial; text-decoration-style: initial; text-decoration-color: initial; float: none; display: inline !important;&quot;&gt;定制化代码&lt;/span&gt;" style="rounded=1;whiteSpace=wrap;html=1;" parent="1" vertex="1">
          <mxGeometry x="650" y="590" width="120" height="60" as="geometry" />
        </mxCell>
      </root>
    </mxGraphModel>
  </diagram>
  <diagram id="Og1SM9SWbv6qK67WtlE2" name="流程共识">
    <mxGraphModel dx="2090" dy="843" grid="1" gridSize="10" guides="1" tooltips="1" connect="1" arrows="1" fold="1" page="1" pageScale="1" pageWidth="850" pageHeight="1100" math="0" shadow="0">
      <root>
        <mxCell id="0" />
        <mxCell id="1" parent="0" />
        <mxCell id="PM1XfxlpZ7X-8FRDsd6J-6" value="" style="rounded=0;whiteSpace=wrap;html=1;" vertex="1" parent="1">
          <mxGeometry x="-110" y="250" width="900" height="160" as="geometry" />
        </mxCell>
        <mxCell id="PM1XfxlpZ7X-8FRDsd6J-1" value="原始数据同步" style="rounded=1;whiteSpace=wrap;html=1;" vertex="1" parent="1">
          <mxGeometry x="-50" y="300" width="120" height="60" as="geometry" />
        </mxCell>
        <mxCell id="PM1XfxlpZ7X-8FRDsd6J-2" value="数据清洗" style="rounded=1;whiteSpace=wrap;html=1;" vertex="1" parent="1">
          <mxGeometry x="110" y="300" width="120" height="60" as="geometry" />
        </mxCell>
        <mxCell id="PM1XfxlpZ7X-8FRDsd6J-3" value="数据转换" style="rounded=1;whiteSpace=wrap;html=1;" vertex="1" parent="1">
          <mxGeometry x="270" y="300" width="120" height="60" as="geometry" />
        </mxCell>
        <mxCell id="PM1XfxlpZ7X-8FRDsd6J-4" value="数据导入" style="rounded=1;whiteSpace=wrap;html=1;" vertex="1" parent="1">
          <mxGeometry x="440" y="300" width="120" height="60" as="geometry" />
        </mxCell>
        <mxCell id="PM1XfxlpZ7X-8FRDsd6J-5" value="数据导后处理" style="rounded=1;whiteSpace=wrap;html=1;" vertex="1" parent="1">
          <mxGeometry x="610" y="300" width="120" height="60" as="geometry" />
        </mxCell>
        <mxCell id="PM1XfxlpZ7X-8FRDsd6J-7" value="数据同步" style="text;html=1;strokeColor=none;fillColor=none;align=center;verticalAlign=middle;whiteSpace=wrap;rounded=0;" vertex="1" parent="1">
          <mxGeometry x="310" y="260" width="60" height="30" as="geometry" />
        </mxCell>
        <mxCell id="PM1XfxlpZ7X-8FRDsd6J-8" value="" style="rounded=0;whiteSpace=wrap;html=1;" vertex="1" parent="1">
          <mxGeometry x="-110" y="510" width="900" height="160" as="geometry" />
        </mxCell>
        <mxCell id="PM1XfxlpZ7X-8FRDsd6J-9" value="辅助任务" style="rounded=1;whiteSpace=wrap;html=1;" vertex="1" parent="1">
          <mxGeometry x="110" y="570" width="120" height="60" as="geometry" />
        </mxCell>
        <mxCell id="PM1XfxlpZ7X-8FRDsd6J-10" value="结果计算/导出" style="rounded=1;whiteSpace=wrap;html=1;" vertex="1" parent="1">
          <mxGeometry x="270" y="570" width="120" height="60" as="geometry" />
        </mxCell>
        <mxCell id="PM1XfxlpZ7X-8FRDsd6J-11" value="结果导入" style="rounded=1;whiteSpace=wrap;html=1;" vertex="1" parent="1">
          <mxGeometry x="430" y="570" width="120" height="60" as="geometry" />
        </mxCell>
        <mxCell id="PM1XfxlpZ7X-8FRDsd6J-14" value="风控计算" style="text;html=1;strokeColor=none;fillColor=none;align=center;verticalAlign=middle;whiteSpace=wrap;rounded=0;" vertex="1" parent="1">
          <mxGeometry x="310" y="520" width="60" height="30" as="geometry" />
        </mxCell>
      </root>
    </mxGraphModel>
  </diagram>
  <diagram id="A9DMLrKfDVq0KSXMo0Hl" name="友邦">
    <mxGraphModel dx="1382" dy="1514" grid="1" gridSize="10" guides="1" tooltips="1" connect="1" arrows="1" fold="1" page="1" pageScale="1" pageWidth="850" pageHeight="1100" math="0" shadow="0">
      <root>
        <mxCell id="0" />
        <mxCell id="1" parent="0" />
        <mxCell id="BBlTaaZiO3NpZDx9ScX0-1" value="" style="rounded=0;whiteSpace=wrap;html=1;" vertex="1" parent="1">
          <mxGeometry x="165" y="540" width="520" height="70" as="geometry" />
        </mxCell>
        <mxCell id="BBlTaaZiO3NpZDx9ScX0-2" value="业务数据图谱" style="rounded=0;whiteSpace=wrap;html=1;" vertex="1" parent="1">
          <mxGeometry x="280" y="547.5" width="110" height="55" as="geometry" />
        </mxCell>
        <mxCell id="BBlTaaZiO3NpZDx9ScX0-4" value="" style="rounded=0;whiteSpace=wrap;html=1;" vertex="1" parent="1">
          <mxGeometry x="165" y="460" width="520" height="70" as="geometry" />
        </mxCell>
        <mxCell id="BBlTaaZiO3NpZDx9ScX0-5" value="业务数据图谱" style="rounded=0;whiteSpace=wrap;html=1;" vertex="1" parent="1">
          <mxGeometry x="420" y="547.5" width="110" height="55" as="geometry" />
        </mxCell>
      </root>
    </mxGraphModel>
  </diagram>
  <diagram id="u1a6W5h8Gbmj5CjUvRBW" name="第 4 页">
    <mxGraphModel dx="1382" dy="1514" grid="1" gridSize="10" guides="1" tooltips="1" connect="1" arrows="1" fold="1" page="1" pageScale="1" pageWidth="850" pageHeight="1100" math="0" shadow="0">
      <root>
        <mxCell id="0" />
        <mxCell id="1" parent="0" />
        <mxCell id="b9JEDcUEOAF8m4aXm5rV-1" value="" style="rounded=0;whiteSpace=wrap;html=1;" vertex="1" parent="1">
          <mxGeometry x="60" y="720" width="160" height="220" as="geometry" />
        </mxCell>
        <mxCell id="b9JEDcUEOAF8m4aXm5rV-2" value="前端应用(react.js)" style="rounded=0;whiteSpace=wrap;html=1;" vertex="1" parent="1">
          <mxGeometry x="80" y="830" width="120" height="40" as="geometry" />
        </mxCell>
        <mxCell id="b9JEDcUEOAF8m4aXm5rV-3" value="后端API(Spring-boot)" style="rounded=0;whiteSpace=wrap;html=1;" vertex="1" parent="1">
          <mxGeometry x="80" y="890" width="120" height="40" as="geometry" />
        </mxCell>
        <mxCell id="b9JEDcUEOAF8m4aXm5rV-4" value="" style="endArrow=classic;html=1;entryX=0.5;entryY=1;entryDx=0;entryDy=0;exitX=0.5;exitY=0;exitDx=0;exitDy=0;" edge="1" parent="1" source="b9JEDcUEOAF8m4aXm5rV-3" target="b9JEDcUEOAF8m4aXm5rV-2">
          <mxGeometry width="50" height="50" relative="1" as="geometry">
            <mxPoint x="330" y="1000" as="sourcePoint" />
            <mxPoint x="380" y="950" as="targetPoint" />
          </mxGeometry>
        </mxCell>
        <mxCell id="b9JEDcUEOAF8m4aXm5rV-5" value="图数据存储(Neo4j)" style="rounded=0;whiteSpace=wrap;html=1;" vertex="1" parent="1">
          <mxGeometry x="60" y="970" width="200" height="60" as="geometry" />
        </mxCell>
        <mxCell id="b9JEDcUEOAF8m4aXm5rV-6" value="&lt;font style=&quot;font-size: 15px&quot;&gt;在线服务&lt;/font&gt;" style="text;html=1;strokeColor=none;fillColor=none;align=center;verticalAlign=middle;whiteSpace=wrap;rounded=0;" vertex="1" parent="1">
          <mxGeometry x="100" y="730" width="80" height="20" as="geometry" />
        </mxCell>
        <mxCell id="b9JEDcUEOAF8m4aXm5rV-7" value="" style="rounded=0;whiteSpace=wrap;html=1;" vertex="1" parent="1">
          <mxGeometry x="260" y="720" width="330" height="220" as="geometry" />
        </mxCell>
        <mxCell id="b9JEDcUEOAF8m4aXm5rV-8" value="ETL&lt;br&gt;(AirFlow, Dolphine, DataWorks)&lt;br&gt;&lt;br&gt;&lt;br&gt;" style="rounded=0;whiteSpace=wrap;html=1;" vertex="1" parent="1">
          <mxGeometry x="280" y="770" width="290" height="100" as="geometry" />
        </mxCell>
        <mxCell id="b9JEDcUEOAF8m4aXm5rV-9" value="&lt;font style=&quot;font-size: 15px&quot;&gt;离线服务&lt;/font&gt;" style="text;html=1;strokeColor=none;fillColor=none;align=center;verticalAlign=middle;whiteSpace=wrap;rounded=0;" vertex="1" parent="1">
          <mxGeometry x="385" y="730" width="80" height="20" as="geometry" />
        </mxCell>
        <mxCell id="b9JEDcUEOAF8m4aXm5rV-10" value="数据拉取" style="rounded=0;whiteSpace=wrap;html=1;" vertex="1" parent="1">
          <mxGeometry x="311" y="820" width="70" height="40" as="geometry" />
        </mxCell>
        <mxCell id="b9JEDcUEOAF8m4aXm5rV-11" value="模型训练" style="rounded=0;whiteSpace=wrap;html=1;" vertex="1" parent="1">
          <mxGeometry x="391" y="820" width="70" height="40" as="geometry" />
        </mxCell>
        <mxCell id="b9JEDcUEOAF8m4aXm5rV-12" value="风险标签" style="rounded=0;whiteSpace=wrap;html=1;" vertex="1" parent="1">
          <mxGeometry x="471" y="820" width="70" height="40" as="geometry" />
        </mxCell>
        <mxCell id="b9JEDcUEOAF8m4aXm5rV-13" value="" style="edgeStyle=elbowEdgeStyle;elbow=vertical;endArrow=classic;html=1;entryX=0.5;entryY=1;entryDx=0;entryDy=0;exitX=0.25;exitY=0;exitDx=0;exitDy=0;" edge="1" parent="1" source="b9JEDcUEOAF8m4aXm5rV-5" target="b9JEDcUEOAF8m4aXm5rV-3">
          <mxGeometry width="50" height="50" relative="1" as="geometry">
            <mxPoint x="330" y="950" as="sourcePoint" />
            <mxPoint x="380" y="900" as="targetPoint" />
          </mxGeometry>
        </mxCell>
        <mxCell id="b9JEDcUEOAF8m4aXm5rV-14" value="" style="edgeStyle=elbowEdgeStyle;elbow=vertical;endArrow=classic;html=1;exitX=0.5;exitY=1;exitDx=0;exitDy=0;entryX=0.75;entryY=0;entryDx=0;entryDy=0;" edge="1" parent="1" source="b9JEDcUEOAF8m4aXm5rV-8" target="b9JEDcUEOAF8m4aXm5rV-5">
          <mxGeometry width="50" height="50" relative="1" as="geometry">
            <mxPoint x="185" y="980" as="sourcePoint" />
            <mxPoint x="346" y="980" as="targetPoint" />
          </mxGeometry>
        </mxCell>
        <mxCell id="b9JEDcUEOAF8m4aXm5rV-15" value="核心镜像库(Oracle, MaxCompute, etc)" style="rounded=0;whiteSpace=wrap;html=1;" vertex="1" parent="1">
          <mxGeometry x="440" y="970" width="150" height="60" as="geometry" />
        </mxCell>
        <mxCell id="b9JEDcUEOAF8m4aXm5rV-16" value="" style="edgeStyle=elbowEdgeStyle;elbow=vertical;endArrow=none;html=1;exitX=0.5;exitY=1;exitDx=0;exitDy=0;entryX=0.5;entryY=0;entryDx=0;entryDy=0;startArrow=classic;startFill=1;endFill=0;" edge="1" parent="1" source="b9JEDcUEOAF8m4aXm5rV-8" target="b9JEDcUEOAF8m4aXm5rV-15">
          <mxGeometry width="50" height="50" relative="1" as="geometry">
            <mxPoint x="435" y="880" as="sourcePoint" />
            <mxPoint x="347.5" y="980" as="targetPoint" />
          </mxGeometry>
        </mxCell>
        <mxCell id="b9JEDcUEOAF8m4aXm5rV-17" value="负载均衡&lt;br&gt;(Nginx)" style="rounded=0;whiteSpace=wrap;html=1;" vertex="1" parent="1">
          <mxGeometry x="80" y="770" width="120" height="40" as="geometry" />
        </mxCell>
        <mxCell id="b9JEDcUEOAF8m4aXm5rV-18" value="消息队列(RocketMQ)" style="rounded=0;whiteSpace=wrap;html=1;" vertex="1" parent="1">
          <mxGeometry x="271" y="970" width="159" height="60" as="geometry" />
        </mxCell>
        <mxCell id="b9JEDcUEOAF8m4aXm5rV-19" value="" style="edgeStyle=elbowEdgeStyle;elbow=vertical;endArrow=classic;html=1;entryX=0.5;entryY=0;entryDx=0;entryDy=0;exitX=0.5;exitY=1;exitDx=0;exitDy=0;" edge="1" parent="1" source="b9JEDcUEOAF8m4aXm5rV-12" target="b9JEDcUEOAF8m4aXm5rV-18">
          <mxGeometry width="50" height="50" relative="1" as="geometry">
            <mxPoint x="435" y="880" as="sourcePoint" />
            <mxPoint x="220" y="980" as="targetPoint" />
            <Array as="points">
              <mxPoint x="430" y="900" />
            </Array>
          </mxGeometry>
        </mxCell>
        <mxCell id="b9JEDcUEOAF8m4aXm5rV-20" value="" style="endArrow=classic;html=1;entryX=0.5;entryY=1;entryDx=0;entryDy=0;" edge="1" parent="1" target="b9JEDcUEOAF8m4aXm5rV-17">
          <mxGeometry width="50" height="50" relative="1" as="geometry">
            <mxPoint x="140" y="830" as="sourcePoint" />
            <mxPoint x="150" y="880" as="targetPoint" />
          </mxGeometry>
        </mxCell>
      </root>
    </mxGraphModel>
  </diagram>
</mxfile>
